<svg width="468" height="474" viewBox="0 0 468 474" fill="none" xmlns="http://www.w3.org/2000/svg">
<path d="M270.062 182.257C266.784 155.554 249.38 158.146 239.866 163.493C239.288 163.818 238.793 164.271 238.435 164.83C233.524 172.489 233.062 186.074 265.227 187.396C268.08 187.513 270.41 185.091 270.062 182.257Z" fill="black" stroke="black"/>
<path d="M0.5 467.5V5.5C0.5 2.73858 2.73858 0.5 5.5 0.5H274.122C274.374 0.5 274.626 0.519089 274.875 0.557351C324.702 8.22613 365.035 33.3625 379 45C478.33 114.412 473.527 245.952 458.622 303.533C458.539 303.854 458.493 304.149 458.47 304.48C457.24 322.344 442.757 368.829 394 416C346.099 462.343 267.139 472.951 230.856 472.556C229.077 472.537 227.471 471.541 226.647 469.964C203.46 425.613 199.855 371.414 201 349.5C213.4 271.1 262.5 248.5 285.5 247C308.5 248.667 360.4 251 384 247C402.958 243.787 411.57 235.626 414.656 229.776C415.753 227.696 414.41 225.386 412.218 224.533C352.209 201.196 322.815 186.869 313.721 181.552C312.597 180.895 311.851 179.81 311.531 178.548C303.241 145.772 267.446 87.1691 185.5 100.5C101.9 114.1 75.3333 174.167 72.5 202.5V467.5C72.5 470.261 70.2614 472.5 67.5 472.5H5.5C2.73858 472.5 0.5 470.261 0.5 467.5Z" fill="black" stroke="black"/>
</svg>
